<mxfile host="app.diagrams.net" modified="2020-10-20T04:15:40.159Z" agent="5.0 (Windows NT 10.0; Win64; x64) AppleWebKit/537.36 (KHTML, like Gecko) Chrome/86.0.4240.75 Safari/537.36" etag="qs5b21dwFWAr8dOTo_Ho" version="13.8.0" type="github">
  <diagram id="kgpKYQtTHZ0yAKxKKP6v" name="Page-1">
    <mxGraphModel dx="1185" dy="662" grid="1" gridSize="10" guides="1" tooltips="1" connect="1" arrows="1" fold="1" page="1" pageScale="1" pageWidth="850" pageHeight="1100" math="0" shadow="0">
      <root>
        <mxCell id="0" />
        <mxCell id="1" parent="0" />
        <mxCell id="3nuBFxr9cyL0pnOWT2aG-1" value="EMPRESTIMO" style="shape=umlLifeline;perimeter=lifelinePerimeter;container=1;collapsible=0;recursiveResize=0;rounded=0;shadow=0;strokeWidth=1;" parent="1" vertex="1">
          <mxGeometry x="110" y="80" width="100" height="500" as="geometry" />
        </mxCell>
        <mxCell id="3nuBFxr9cyL0pnOWT2aG-2" value="" style="points=[];perimeter=orthogonalPerimeter;rounded=0;shadow=0;strokeWidth=1;" parent="3nuBFxr9cyL0pnOWT2aG-1" vertex="1">
          <mxGeometry x="45" y="80" width="10" height="290" as="geometry" />
        </mxCell>
        <mxCell id="3nuBFxr9cyL0pnOWT2aG-3" value="emprestar()" style="verticalAlign=bottom;startArrow=oval;endArrow=block;startSize=8;shadow=0;strokeWidth=1;" parent="3nuBFxr9cyL0pnOWT2aG-1" target="3nuBFxr9cyL0pnOWT2aG-2" edge="1">
          <mxGeometry x="0.1667" relative="1" as="geometry">
            <mxPoint x="-15" y="80" as="sourcePoint" />
            <mxPoint as="offset" />
          </mxGeometry>
        </mxCell>
        <mxCell id="3nuBFxr9cyL0pnOWT2aG-5" value="USUARIO" style="shape=umlLifeline;perimeter=lifelinePerimeter;container=1;collapsible=0;recursiveResize=0;rounded=0;shadow=0;strokeWidth=1;" parent="1" vertex="1">
          <mxGeometry x="340" y="80" width="100" height="300" as="geometry" />
        </mxCell>
        <mxCell id="3nuBFxr9cyL0pnOWT2aG-6" value="" style="points=[];perimeter=orthogonalPerimeter;rounded=0;shadow=0;strokeWidth=1;" parent="3nuBFxr9cyL0pnOWT2aG-5" vertex="1">
          <mxGeometry x="45" y="80" width="10" height="130" as="geometry" />
        </mxCell>
        <mxCell id="3nuBFxr9cyL0pnOWT2aG-8" value="emprestar()" style="verticalAlign=bottom;endArrow=block;entryX=0;entryY=0;shadow=0;strokeWidth=1;" parent="1" source="3nuBFxr9cyL0pnOWT2aG-2" target="3nuBFxr9cyL0pnOWT2aG-6" edge="1">
          <mxGeometry relative="1" as="geometry">
            <mxPoint x="275" y="160" as="sourcePoint" />
          </mxGeometry>
        </mxCell>
        <mxCell id="G-zvMkYU_E3-vMsgWcKH-2" value="Actor" style="shape=umlActor;verticalLabelPosition=bottom;verticalAlign=top;html=1;outlineConnect=0;" vertex="1" parent="1">
          <mxGeometry x="60" y="120" width="30" height="60" as="geometry" />
        </mxCell>
        <mxCell id="G-zvMkYU_E3-vMsgWcKH-3" value="ACERVO" style="shape=umlLifeline;perimeter=lifelinePerimeter;container=1;collapsible=0;recursiveResize=0;rounded=0;shadow=0;strokeWidth=1;" vertex="1" parent="1">
          <mxGeometry x="590" y="80" width="100" height="300" as="geometry" />
        </mxCell>
        <mxCell id="G-zvMkYU_E3-vMsgWcKH-4" value="" style="points=[];perimeter=orthogonalPerimeter;rounded=0;shadow=0;strokeWidth=1;" vertex="1" parent="G-zvMkYU_E3-vMsgWcKH-3">
          <mxGeometry x="45" y="80" width="10" height="190" as="geometry" />
        </mxCell>
        <mxCell id="G-zvMkYU_E3-vMsgWcKH-5" value="" style="endArrow=classic;html=1;exitX=0.914;exitY=0.007;exitDx=0;exitDy=0;exitPerimeter=0;entryX=0;entryY=0.007;entryDx=0;entryDy=0;entryPerimeter=0;" edge="1" parent="1" source="3nuBFxr9cyL0pnOWT2aG-6" target="G-zvMkYU_E3-vMsgWcKH-4">
          <mxGeometry width="50" height="50" relative="1" as="geometry">
            <mxPoint x="370" y="270" as="sourcePoint" />
            <mxPoint x="630" y="161" as="targetPoint" />
          </mxGeometry>
        </mxCell>
        <mxCell id="G-zvMkYU_E3-vMsgWcKH-9" value="" style="endArrow=classic;html=1;entryX=0.786;entryY=0.011;entryDx=0;entryDy=0;entryPerimeter=0;" edge="1" parent="1" source="G-zvMkYU_E3-vMsgWcKH-4" target="G-zvMkYU_E3-vMsgWcKH-10">
          <mxGeometry width="50" height="50" relative="1" as="geometry">
            <mxPoint x="550" y="260" as="sourcePoint" />
            <mxPoint x="550" y="201" as="targetPoint" />
          </mxGeometry>
        </mxCell>
        <mxCell id="G-zvMkYU_E3-vMsgWcKH-10" value="" style="points=[];perimeter=orthogonalPerimeter;rounded=0;shadow=0;strokeWidth=1;" vertex="1" parent="1">
          <mxGeometry x="500" y="200" width="10" height="60" as="geometry" />
        </mxCell>
        <mxCell id="G-zvMkYU_E3-vMsgWcKH-11" value="[se não disponível]" style="text;html=1;strokeColor=none;fillColor=none;align=center;verticalAlign=middle;whiteSpace=wrap;rounded=0;" vertex="1" parent="1">
          <mxGeometry x="520" y="180" width="110" height="20" as="geometry" />
        </mxCell>
        <mxCell id="G-zvMkYU_E3-vMsgWcKH-13" value="" style="endArrow=classic;html=1;exitX=1.1;exitY=0.9;exitDx=0;exitDy=0;exitPerimeter=0;" edge="1" parent="1" source="G-zvMkYU_E3-vMsgWcKH-10">
          <mxGeometry width="50" height="50" relative="1" as="geometry">
            <mxPoint x="520" y="258" as="sourcePoint" />
            <mxPoint x="630" y="254" as="targetPoint" />
          </mxGeometry>
        </mxCell>
        <mxCell id="G-zvMkYU_E3-vMsgWcKH-14" value="" style="endArrow=classic;html=1;exitX=0.171;exitY=0.901;exitDx=0;exitDy=0;exitPerimeter=0;entryX=1.029;entryY=0.588;entryDx=0;entryDy=0;entryPerimeter=0;" edge="1" parent="1" source="G-zvMkYU_E3-vMsgWcKH-4" target="3nuBFxr9cyL0pnOWT2aG-2">
          <mxGeometry width="50" height="50" relative="1" as="geometry">
            <mxPoint x="630" y="331" as="sourcePoint" />
            <mxPoint x="230" y="331" as="targetPoint" />
          </mxGeometry>
        </mxCell>
        <mxCell id="G-zvMkYU_E3-vMsgWcKH-16" value="mensagem" style="text;html=1;strokeColor=none;fillColor=none;align=center;verticalAlign=middle;whiteSpace=wrap;rounded=0;" vertex="1" parent="1">
          <mxGeometry x="550" y="230" width="40" height="20" as="geometry" />
        </mxCell>
        <mxCell id="G-zvMkYU_E3-vMsgWcKH-17" value="return" style="text;html=1;strokeColor=none;fillColor=none;align=center;verticalAlign=middle;whiteSpace=wrap;rounded=0;" vertex="1" parent="1">
          <mxGeometry x="460" y="310" width="40" height="20" as="geometry" />
        </mxCell>
        <mxCell id="G-zvMkYU_E3-vMsgWcKH-19" value="" style="endArrow=classic;html=1;" edge="1" parent="1">
          <mxGeometry width="50" height="50" relative="1" as="geometry">
            <mxPoint x="165" y="374" as="sourcePoint" />
            <mxPoint x="270" y="374" as="targetPoint" />
          </mxGeometry>
        </mxCell>
        <mxCell id="G-zvMkYU_E3-vMsgWcKH-21" value="" style="points=[];perimeter=orthogonalPerimeter;rounded=0;shadow=0;strokeWidth=1;" vertex="1" parent="1">
          <mxGeometry x="270" y="370" width="10" height="60" as="geometry" />
        </mxCell>
        <mxCell id="G-zvMkYU_E3-vMsgWcKH-22" value="" style="endArrow=classic;html=1;exitX=-0.129;exitY=0.41;exitDx=0;exitDy=0;exitPerimeter=0;" edge="1" parent="1">
          <mxGeometry width="50" height="50" relative="1" as="geometry">
            <mxPoint x="268.71000000000004" y="423.6" as="sourcePoint" />
            <mxPoint x="165" y="423.6" as="targetPoint" />
          </mxGeometry>
        </mxCell>
        <mxCell id="G-zvMkYU_E3-vMsgWcKH-26" value="salvar" style="text;html=1;strokeColor=none;fillColor=none;align=center;verticalAlign=middle;whiteSpace=wrap;rounded=0;" vertex="1" parent="1">
          <mxGeometry x="200" y="350" width="40" height="20" as="geometry" />
        </mxCell>
        <mxCell id="G-zvMkYU_E3-vMsgWcKH-27" value="mensagem" style="text;html=1;strokeColor=none;fillColor=none;align=center;verticalAlign=middle;whiteSpace=wrap;rounded=0;" vertex="1" parent="1">
          <mxGeometry x="200" y="400" width="40" height="20" as="geometry" />
        </mxCell>
        <mxCell id="G-zvMkYU_E3-vMsgWcKH-29" value="" style="shape=umlDestroy;whiteSpace=wrap;html=1;strokeWidth=3;" vertex="1" parent="1">
          <mxGeometry x="625" y="390" width="30" height="30" as="geometry" />
        </mxCell>
      </root>
    </mxGraphModel>
  </diagram>
</mxfile>
